<svg width="75" height="34" viewBox="0 0 75 34" fill="none" xmlns="http://www.w3.org/2000/svg">
<path d="M0.193255 12.4249C0.193164 12.0921 0.325526 11.7725 0.56203 11.5345C0.798535 11.2965 1.1204 11.1589 1.45878 11.1511H8.67027C13.7826 11.1511 17.1473 13.827 17.1473 18.211V18.2703C17.1473 23.069 13.0695 25.5573 8.24843 25.5573H2.75444V32.2913C2.77019 32.466 2.74878 32.642 2.69159 32.8082C2.63439 32.9743 2.54265 33.1269 2.4222 33.2563C2.30175 33.3856 2.15523 33.489 1.99196 33.5596C1.82869 33.6303 1.65224 33.6668 1.47384 33.6668C1.29544 33.6668 1.119 33.6303 0.955733 33.5596C0.792463 33.489 0.645943 33.3856 0.525494 33.2563C0.405045 33.1269 0.313297 32.9743 0.256098 32.8082C0.1989 32.642 0.177502 32.466 0.193255 32.2913V12.4249ZM8.34887 23.2863C12.0952 23.2863 14.556 21.3115 14.556 18.3493V18.29C14.556 15.1106 12.1354 13.4616 8.52966 13.4616H2.80466V23.2468L8.34887 23.2863Z" fill="#283645"/>
<path d="M22.0187 12.2668C22.0029 12.0921 22.0243 11.9161 22.0815 11.75C22.1387 11.5839 22.2305 11.4313 22.3509 11.3019C22.4714 11.1725 22.6179 11.0692 22.7812 10.9985C22.9444 10.9279 23.1209 10.8914 23.2993 10.8914C23.4777 10.8914 23.6541 10.9279 23.8174 10.9985C23.9807 11.0692 24.1272 11.1725 24.2476 11.3019C24.3681 11.4313 24.4598 11.5839 24.517 11.75C24.5742 11.9161 24.5956 12.0921 24.5799 12.2668V32.2913C24.5956 32.466 24.5742 32.642 24.517 32.8081C24.4598 32.9742 24.3681 33.1268 24.2476 33.2562C24.1272 33.3856 23.9807 33.4889 23.8174 33.5596C23.6541 33.6303 23.4777 33.6668 23.2993 33.6668C23.1209 33.6668 22.9444 33.6303 22.7812 33.5596C22.6179 33.4889 22.4714 33.3856 22.3509 33.2562C22.2305 33.1268 22.1387 32.9742 22.0815 32.8081C22.0243 32.642 22.0029 32.466 22.0187 32.2913V12.2668Z" fill="#283645"/>
<path d="M31.1987 12.2964C31.2065 11.9698 31.3426 11.6588 31.5786 11.4287C31.8145 11.1985 32.1319 11.0672 32.4643 11.0622H32.8158C33.0768 11.0674 33.3322 11.1371 33.5586 11.2648C33.785 11.3925 33.9751 11.5741 34.1115 11.7929L47.8615 29.023V12.2372C47.8615 11.9125 47.9927 11.601 48.2263 11.3714C48.4599 11.1418 48.7766 11.0128 49.1069 11.0128C49.4373 11.0128 49.754 11.1418 49.9876 11.3714C50.2212 11.601 50.3524 11.9125 50.3524 12.2372V32.3308C50.3579 32.4836 50.3316 32.6358 50.2753 32.7783C50.2189 32.9208 50.1336 33.0505 50.0246 33.1596C49.9156 33.2686 49.7851 33.3546 49.6412 33.4125C49.4972 33.4703 49.3428 33.4987 49.1873 33.4959H49.0567C48.79 33.4778 48.5313 33.3988 48.3011 33.2651C48.0709 33.1314 47.8757 32.9467 47.7309 32.7257L33.6695 15.0908V32.3308C33.6673 32.649 33.5411 32.9543 33.317 33.1839C33.0928 33.4135 32.7876 33.5499 32.4643 33.565C32.1357 33.5598 31.8225 33.4272 31.593 33.196C31.3635 32.9648 31.2362 32.6538 31.2389 32.3308V12.2964H31.1987Z" fill="#283645"/>
<path d="M56.7404 12.2668C56.7246 12.0921 56.746 11.9161 56.8032 11.75C56.8604 11.5839 56.9522 11.4313 57.0726 11.3019C57.1931 11.1725 57.3396 11.0692 57.5029 10.9985C57.6661 10.9279 57.8426 10.8914 58.021 10.8914C58.1994 10.8914 58.3758 10.9279 58.5391 10.9985C58.7023 11.0692 58.8489 11.1725 58.9693 11.3019C59.0898 11.4313 59.1815 11.5839 59.2387 11.75C59.2959 11.9161 59.3173 12.0921 59.3016 12.2668V24.4415L72.1979 11.4374C72.4625 11.1683 72.822 11.0093 73.2023 10.9931C73.531 11.0057 73.8423 11.1417 74.0721 11.3731C74.302 11.6046 74.4328 11.9138 74.4377 12.2372C74.4306 12.4054 74.3896 12.5705 74.3172 12.723C74.2448 12.8756 74.1424 13.0125 74.0158 13.1259L65.9807 20.9461L74.6486 31.373C74.8751 31.631 74.9999 31.9604 75.0001 32.3012C74.9962 32.4719 74.958 32.6402 74.8876 32.7963C74.8172 32.9524 74.7161 33.0933 74.59 33.2108C74.4639 33.3283 74.3155 33.4201 74.1531 33.4809C73.9908 33.5417 73.8178 33.5703 73.6442 33.565C73.4415 33.5595 73.2434 33.5043 73.0679 33.4042C72.8925 33.3042 72.7453 33.1626 72.6398 32.9923L64.1929 22.6345L59.3016 27.4333V32.2715C59.3016 32.4362 59.2686 32.5993 59.2045 32.7514C59.1404 32.9036 59.0464 33.0418 58.928 33.1583C58.8095 33.2747 58.6689 33.3671 58.5141 33.4301C58.3594 33.4931 58.1935 33.5255 58.026 33.5255C57.8585 33.5255 57.6926 33.4931 57.5378 33.4301C57.3831 33.3671 57.2425 33.2747 57.124 33.1583C57.0056 33.0418 56.9116 32.9036 56.8475 32.7514C56.7834 32.5993 56.7504 32.4362 56.7504 32.2715V12.2668H56.7404Z" fill="#283645"/>
<path d="M26.94 3.74565C25.9748 3.74565 25.0489 3.36938 24.3655 2.69934C23.682 2.02929 23.2967 1.12016 23.2941 0.171265C23.2941 1.11925 22.911 2.02841 22.2292 2.69874C21.5473 3.36906 20.6225 3.74565 19.6582 3.74565C20.6234 3.74826 21.5482 4.12704 22.2298 4.79894C22.9113 5.47084 23.2941 6.38101 23.2941 7.32991C23.2967 6.38011 23.6817 5.46995 24.3649 4.79833C25.048 4.12672 25.9739 3.74826 26.94 3.74565Z" fill="#D22856"/>
</svg>
